<svg width="123" height="123" viewBox="0 0 123 123" fill="none" xmlns="http://www.w3.org/2000/svg">
<g clip-path="url(#clip0_31_3310)">
<path d="M61.5 123C100.86 123 123 100.86 123 61.5C123 22.14 100.86 0 61.5 0C22.14 0 0 22.14 0 61.5C0 100.86 22.14 123 61.5 123Z" fill="url(#paint0_linear_31_3310)"/>
<path fill-rule="evenodd" clip-rule="evenodd" d="M87.0421 82.1418C87.0421 83.6796 86.4301 85.1544 85.3405 86.2422C84.2508 87.33 82.7729 87.9417 81.2314 87.9428H39.8194C38.2767 87.9428 36.7972 87.3318 35.706 86.244C34.6148 85.1562 34.0011 83.6807 34 82.1418V41.8139C33.9989 41.0508 34.1486 40.295 34.4405 39.5897C34.7325 38.8843 35.1609 38.2434 35.7014 37.7034C36.2419 37.1634 36.8838 36.735 37.5904 36.4427C38.297 36.1504 39.0545 36 39.8194 36H81.2314C82.7729 36.0011 84.2508 36.6128 85.3405 37.7006C86.4301 38.7884 87.0421 40.2632 87.0421 41.801V82.1418Z" fill="#F26522"/>
<path fill-rule="evenodd" clip-rule="evenodd" d="M47.7839 55.9217L54.3404 67.4599L75.5557 49.1929L80.4419 57.5985L53.4516 74.752L42.7903 63.8767L47.7839 55.9217Z" fill="white"/>
</g>
<defs>
<linearGradient id="paint0_linear_31_3310" x1="61.5" y1="0" x2="61.5" y2="123" gradientUnits="userSpaceOnUse">
<stop stop-color="#FFFDFE"/>
<stop offset="1" stop-color="#FEC9AE"/>
</linearGradient>
<clipPath id="clip0_31_3310">
<rect width="123" height="123" fill="white"/>
</clipPath>
</defs>
</svg>
