<svg width="30" height="28" viewBox="0 0 30 28" fill="none" xmlns="http://www.w3.org/2000/svg">
<path d="M14.0057 28C16.973 28 19.741 27.1003 22.1417 25.3998C23.2424 25.9661 24.9098 26.6667 26.3441 26.6667C28.6445 26.6667 29.546 25.8672 29.7128 25.7005C29.946 25.4675 30.0463 25.1667 29.9799 24.8672C29.9134 24.5677 29.7467 24.267 29.4797 24.1342C28.646 23.668 26.5787 22.2006 26.3456 20.6002C27.445 18.5663 28.0116 16.2995 28.0116 13.9999C28.0116 6.26695 21.742 0 14.0058 0C6.2696 0 0 6.26695 0 13.9999C0 21.7328 6.26944 28 14.0057 28ZM22.043 23.233C21.8098 23.233 21.6092 23.2994 21.4099 23.4336C19.2762 25.1002 16.7073 25.9999 13.9732 25.9999C7.33775 25.9999 1.96819 20.6326 1.96819 14C1.96689 7.3674 7.3701 2.00011 14.0058 2.00011C20.6416 2.00011 26.0108 7.3674 26.0108 14C26.0108 16.0664 25.4767 18.1003 24.4763 19.8673C24.376 20.034 24.3435 20.2006 24.3435 20.3673C24.3773 22.1668 25.6435 23.6668 26.7781 24.6343H26.3443C25.4442 24.6343 24.01 24.1343 22.5434 23.301C22.3766 23.2671 22.2097 23.233 22.043 23.233ZM14.0057 21.6666C14.5723 21.6666 15.0061 21.233 15.0061 20.6667V13.3334H16.0065C16.5731 13.3334 17.0069 12.8998 17.0069 12.3334C17.0069 11.767 16.5731 11.3334 16.0065 11.3334H14.0057C13.439 11.3334 13.0052 11.767 13.0052 12.3334V20.6667C13.0052 21.233 13.439 21.6666 14.0057 21.6666ZM14.6726 9.66673C15.6066 9.66673 16.34 8.93367 16.34 8.00008C16.34 7.06648 15.6066 6.33342 14.6726 6.33342C13.7386 6.33342 13.0052 7.06648 13.0052 8.00008C13.0052 8.93367 13.7386 9.66673 14.6726 9.66673Z" fill="#2C353E" fill-opacity="0.7"/>
</svg>
