<svg width="123" height="123" viewBox="0 0 123 123" fill="none" xmlns="http://www.w3.org/2000/svg">
<g clip-path="url(#clip0_31_3026)">
<path d="M61.5 123C100.86 123 123 100.86 123 61.5C123 22.14 100.86 0 61.5 0C22.14 0 0 22.14 0 61.5C0 100.86 22.14 123 61.5 123Z" fill="url(#paint0_linear_31_3026)"/>
<path fill-rule="evenodd" clip-rule="evenodd" d="M75.9741 57.757C76.7463 59.0969 77.5738 59.5993 79.1184 59.5993H95.8328C96.6603 59.5993 97.2671 58.5386 96.8809 57.757L80.9388 29.8424C80.1665 28.5025 79.339 28 77.8496 28H45.9101C45.0826 28 44.4758 29.0607 44.862 29.8424L53.1365 44.358C53.9088 45.6979 54.7362 46.2003 56.2808 46.2003H69.4096L75.9741 57.757ZM40.0628 94.1576C40.8351 95.4975 41.6625 96 43.2071 96H71.7817C73.3262 96 74.1537 95.5534 75.1466 94.3251L96.7154 66.1314C97.2119 65.5172 96.6603 64.4565 95.888 64.4565H61.2455C59.7009 64.4565 58.8735 63.954 58.1012 62.6141L40.6696 32.1872C40.2283 31.4614 39.125 31.6289 38.8492 32.2989L25.3894 65.2381C24.7826 66.7455 24.8929 67.6946 25.6652 69.0345L40.0628 94.1576Z" fill="white"/>
</g>
<defs>
<linearGradient id="paint0_linear_31_3026" x1="61.5" y1="-8.9405e-08" x2="61" y2="73" gradientUnits="userSpaceOnUse">
<stop stop-color="#FFFDFE"/>
<stop offset="1" stop-color="#FF2241"/>
</linearGradient>
<clipPath id="clip0_31_3026">
<rect width="123" height="123" fill="white"/>
</clipPath>
</defs>
</svg>
